HIERARCHY
ROOT Hips
{
	OFFSET 0.000000 0.000000 0.000000 
	CHANNELS 6 Xposition Yposition Zposition Yrotation Zrotation Xrotation 
	JOINT Lumbar
	{
		OFFSET 0.000000 0.000000 0.000000 
		CHANNELS 3 Zrotation Xrotation Yrotation
		JOINT Neck
		{
			OFFSET 0.000000 0.445665 0.000000 
			CHANNELS 3 Zrotation Xrotation Yrotation
			End Site
			{
				OFFSET 0.000000 0.227535 0.000000 
			}
		}
		JOINT RightShoulder
		{
			OFFSET 0.019635 0.377685 0.194865 
			CHANNELS 3 Zrotation Xrotation Yrotation
			JOINT RightElbow
			{
				OFFSET 0.000000 -0.243375 0.000000 
				CHANNELS 2 Zrotation Yrotation
				JOINT RightWrist
				{
					OFFSET 0.000000 -0.264825 0.000000 
					CHANNELS 2 Zrotation Xrotation
					End Site
					{
						OFFSET 0.006600 -0.176220 0.000990 
					}
				}
			}
		}
		JOINT LeftShoulder
		{
			OFFSET 0.019635 0.377685 -0.194865 
			CHANNELS 3 Zrotation Xrotation Yrotation
			JOINT LeftElbow
			{
				OFFSET 0.000000 -0.243375 0.000000 
				CHANNELS 2 Zrotation Yrotation
				JOINT LeftWrist
				{
					OFFSET 0.000000 -0.264825 0.000000 
					CHANNELS 2 Zrotation Xrotation
					End Site
					{
						OFFSET 0.006600 -0.176220 -0.000990 
					}
				}
			}
		}
	}
	JOINT RightHip
	{
		OFFSET 0.052140 -0.069960 0.075570 
		CHANNELS 3 Zrotation Xrotation Yrotation
		JOINT RightKnee
		{
			OFFSET 0.000000 -0.402270 0.000000 
			CHANNELS 1 Zrotation
			JOINT RightAnkle
			{
				OFFSET 0.000000 -0.404085 0.000000 
				CHANNELS 3 Zrotation Xrotation Yrotation
				End Site
				{
					OFFSET 0.204105 -0.089430 0.008415 
				}
			}
		}
	}
	JOINT LeftHip
	{
		OFFSET 0.052140 -0.069960 -0.075570 
		CHANNELS 3 Zrotation Xrotation Yrotation
		JOINT LeftKnee
		{
			OFFSET 0.000000 -0.402270 0.000000 
			CHANNELS 1 Zrotation
			JOINT LeftAnkle
			{
				OFFSET 0.000000 -0.404085 0.000000 
				CHANNELS 3 Zrotation Xrotation Yrotation
				End Site
				{
					OFFSET 0.204105 -0.089430 -0.008415 
				}
			}
		}
	}
}
MOTION
Frames: 16
Frame Time: 0.02
0.00058 0.00017 -0.0003 16.23308 -34.28465 -4.11287 58.28136 1.08022 1.71213 -11.38867 -0.65218 -1.22286 166.38126 -81.02408 -22.73337 12.6067 72.99921 -2.64084 -4.15274 8.12128 107.48045 -55.63785 5.78663 -90.53006 9.19975 0.24001 50.7402 -3.23445 -8.55223 -19.428 -7.78024 -3.52629 -4.01956 52.80522 4.20539 3.23408 -24.35954 -9.48349 4.44305 4.58067
0.00112 0.0002 -0.00039 16.31563 -34.30235 -4.10386 58.33839 1.05082 1.66645 -11.59797 -0.6211 -1.2251 166.39145 -81.52007 -22.47249 12.47169 73.51095 -2.59622 -4.04438 9.35206 107.04031 -55.63668 5.78674 -90.84614 8.92731 0.02641 50.69897 -3.28237 -8.78679 -19.41429 -7.76351 -3.51697 -4.01183 52.79036 4.29775 3.70196 -24.3627 -9.42217 4.41635 4.56193
0.00166 0.00023 -0.00048 16.39812 -34.32002 -4.09489 58.39522 1.02148 1.62081 -11.80668 -0.59012 -1.22733 166.3765 -82.01631 -22.22929 12.33573 74.02051 -2.55308 -3.93678 10.57968 106.60102 -55.63551 5.78684 -91.1619 8.65603 -0.18665 50.65783 -3.33015 -9.02061 -19.40062 -7.74682 -3.50768 -4.00414 52.77556 4.38988 4.1687 -24.36586 -9.361 4.38971 4.54322
0.0022 0.00026 -0.00057 16.48045 -34.33768 -4.08592 58.45207 0.99216 1.57525 -12.01535 -0.55913 -1.22956 166.38178 -82.51112 -21.97248 12.20087 74.53055 -2.50885 -3.82885 11.8068 106.16215 -55.63434 5.78694 -91.47723 8.3845 -0.39961 50.61672 -3.37793 -9.25444 -19.38696 -7.73014 -3.49839 -3.99644 52.76075 4.48196 4.63518 -24.36902 -9.29987 4.36308 4.52453
0.00275 0.00029 -0.00065 16.56275 -34.35536 -4.0769 58.50912 0.96279 1.5297 -12.22459 -0.52806 -1.2318 166.42383 -83.00485 -21.69017 12.06762 75.04305 -2.46252 -3.71996 13.03676 105.72264 -55.63317 5.78705 -91.79233 8.11165 -0.61306 50.57555 -3.42586 -9.48902 -19.37326 -7.7134 -3.48905 -3.9887 52.74589 4.57425 5.10274 -24.37219 -9.23859 4.33641 4.50581
0.00329 0.00032 -0.00074 16.64563 -34.373 -4.06803 58.56552 0.93353 1.48389 -12.43219 -0.49727 -1.23401 166.29053 -83.50624 -21.52821 11.92603 75.54642 -2.42601 -3.61503 14.25935 105.28383 -55.63202 5.78715 -92.10929 7.84367 -0.8253 50.53446 -3.47332 -9.72122 -19.35964 -7.69684 -3.47989 -3.98111 52.7312 4.66605 5.56776 -24.37534 -9.17764 4.30984 4.48714
0.00383 0.00035 -0.00083 16.72727 -34.39071 -4.05888 58.62316 0.90408 1.43864 -12.64286 -0.46593 -1.23627 166.50388 -83.99208 -21.12855 11.80102 76.06744 -2.37011 -3.5024 15.49555 104.84409 -55.63082 5.78726 -92.42295 7.56633 -1.0397 50.49324 -3.52166 -9.95795 -19.34587 -7.67995 -3.47037 -3.97324 52.71619 4.75871 6.03723 -24.37852 -9.11612 4.28309 4.46838
0.00437 0.00037 -0.00092 16.81005 -34.40837 -4.04998 58.67964 0.8748 1.39288 -12.85068 -0.4351 -1.23849 166.40914 -84.4915 -20.94025 11.66135 76.5725 -2.33148 -3.39661 16.71898 104.4052 -55.62967 5.78736 -92.73823 7.29735 -1.25221 50.45216 -3.5692 -10.19052 -19.33225 -7.66336 -3.46119 -3.96562 52.70148 4.85062 6.50284 -24.38167 -9.0551 4.25649 4.4497
0.00491 0.0004 -0.001 16.89427 -34.42591 -4.04142 58.73476 0.84574 1.34642 -13.05517 -0.40488 -1.24065 165.88726 -85.01107 -21.04438 11.50099 77.05688 -2.31662 -3.30022 17.92828 103.9671 -55.62857 5.78746 -93.06136 7.03959 -1.46209 50.41114 -3.61576 -10.41801 -19.3188 -7.64712 -3.4524 -3.95832 52.68711 4.94149 6.96305 -24.38478 -8.99478 4.23013 4.43115
0.00547 0.00043 -0.0011 16.97035 -34.44394 -4.03098 58.79788 0.81542 1.30375 -13.2793 -0.37112 -1.24314 167.67054 -85.42544 -19.56872 11.4513 77.65671 -2.17302 -3.1529 19.2234 103.5237 -55.62717 5.78758 -93.35699 6.7203 -1.68617 50.36945 -3.66793 -10.67474 -19.30431 -7.62882 -3.44131 -3.94922 52.67069 5.03799 7.45231 -24.38812 -8.93068 4.20256 4.41193
0.00598 0.00046 -0.00117 17.06347 -34.46106 -4.02447 58.84405 0.78778 1.25326 -13.46168 -0.34486 -1.24493 164.69056 -86.05465 -21.35861 11.17365 78.01528 -2.29576 -3.11096 20.33442 103.09207 -55.62639 5.78765 -93.69927 6.52887 -1.88087 50.32938 -3.70829 -10.86976 -19.29204 -7.61489 -3.43509 -3.9439 52.65868 5.12282 7.88147 -24.39097 -8.87439 4.17742 4.39407
0.00636 0.00049 -0.00118 17.20502 -34.47478 -4.02927 58.84396 0.76752 1.17966 -13.53096 -0.33903 -1.24478 147.67284 -87.33871 -32.76228 10.21807 77.686 -3.20075 -3.37841 20.95969 102.68795 -55.62732 5.78756 -94.26618 6.70788 -1.98896 50.2919 -3.71571 -10.89428 -19.2857 -7.61277 -3.44229 -3.94908 52.65806 5.17343 8.13408 -24.39252 -8.84115 4.16024 4.38047
0.00669 0.00052 -0.00116 17.3633 -34.48774 -4.03793 58.82683 0.74996 1.09857 -13.55806 -0.34076 -1.24394 126.04721 -88.82655 -47.32667 9.04309 77.11909 -4.36383 -3.74802 21.39591 102.29658 -55.62881 5.78741 -94.86323 7.01167 -2.06838 50.25633 -3.7114 -10.85731 -19.28162 -7.61503 -3.45436 -3.95803 52.66198 5.21265 8.32808 -24.39356 -8.81552 4.14531 4.36817
0.00705 0.00055 -0.00116 17.51292 -34.50169 -4.0445 58.81735 0.73112 1.0219 -13.6035 -0.33912 -1.24344 107.16639 -90.1783 -60.01527 8.00295 76.67793 -5.37514 -4.05755 21.90669 101.90244 -55.63007 5.78729 -95.38187 7.24559 -2.16519 50.22114 -3.71275 -10.84889 -19.27661 -7.61542 -3.46424 -3.96519 52.66431 5.25861 8.55707 -24.39479 -8.78527 4.12847 4.35491
0.00741 0.00058 -0.00115 17.66729 -34.51302 -4.05251 58.80824 0.71244 0.94067 -13.6523 -0.33721 -1.2428 85.54517 -91.71343 -74.55486 6.81485 76.16189 -6.53202 -4.42457 22.46746 101.49537 -55.63138 5.78715 -96.1688 7.53532 -2.24471 50.18085 -3.71257 -10.83671 -19.27122 -7.61542 -3.47415 -3.97271 52.66476 5.29826 8.75246 -24.39623 -8.75967 4.11522 4.34311
0.00773 0.0006 -0.00113 17.81539 -34.52947 -4.05843 58.79432 0.69415 0.86747 -13.68414 -0.33764 -1.24229 68.5195 -92.91564 -86.00126 5.88192 75.74478 -7.44748 -4.69653 22.87627 101.11849 -55.63255 5.78704 -96.41027 7.73839 -2.35199 50.15144 -3.71294 -10.81915 -19.26713 -7.61715 -3.48501 -3.98031 52.67006 5.34795 9.00169 -24.39709 -8.72652 4.09524 4.32871
